<svg xmlns="http://www.w3.org/2000/svg" viewBox="0 0 64 64" width="64" height="64">
  <defs>
    <linearGradient id="gradLeaf" x1="0%" y1="0%" x2="100%" y2="100%">
      <stop offset="0%" stop-color="#2ecc71"/>
      <stop offset="100%" stop-color="#1a7a45"/>
    </linearGradient>
    <linearGradient id="gradCircuit" x1="0%" y1="0%" x2="100%" y2="100%">
      <stop offset="0%" stop-color="#27ae60"/>
      <stop offset="100%" stop-color="#0d6efd"/>
    </linearGradient>
  </defs>

  <circle cx="32" cy="32" r="30" fill="url(#gradLeaf)"/>
  <circle cx="32" cy="32" r="30" fill="none" stroke="#ffffff" stroke-width="1.5" opacity="0.3"/>

  <path d="M 32 10 Q 16 24 16 40 Q 16 52 32 52 Q 48 52 48 40 Q 48 24 32 10 Z"
        fill="#ffffff" opacity="0.95"/>
  <line x1="32" y1="12" x2="32" y2="50" stroke="url(#gradCircuit)" stroke-width="2.5" stroke-linecap="round"/>

  <path d="M 32 22 Q 24 24 21 29" fill="none" stroke="url(#gradCircuit)" stroke-width="2" stroke-linecap="round"/>
  <circle cx="21" cy="29" r="2.5" fill="#0d6efd"/>

  <path d="M 32 31 Q 24 33 20 38" fill="none" stroke="url(#gradCircuit)" stroke-width="2" stroke-linecap="round"/>
  <circle cx="20" cy="38" r="2.5" fill="#0d6efd"/>

  <path d="M 32 22 Q 40 24 43 29" fill="none" stroke="url(#gradCircuit)" stroke-width="2" stroke-linecap="round"/>
  <circle cx="43" cy="29" r="2.5" fill="#0d6efd"/>

  <path d="M 32 31 Q 40 33 44 38" fill="none" stroke="url(#gradCircuit)" stroke-width="2" stroke-linecap="round"/>
  <circle cx="44" cy="38" r="2.5" fill="#0d6efd"/>

  <path d="M 16 16 L 11 21 L 16 21" fill="none" stroke="#ffffff" stroke-width="2" stroke-linecap="round" stroke-linejoin="round" opacity="0.5"/>
  <path d="M 48 16 L 53 21 L 48 21" fill="none" stroke="#ffffff" stroke-width="2" stroke-linecap="round" stroke-linejoin="round" opacity="0.5"/>
</svg>